<!DOCTYPE svg PUBLIC "-//W3C//DTD SVG 20010904//EN" "http://www.w3.org/TR/2001/REC-SVG-20010904/DTD/svg10.dtd">
<svg version="1.0" xmlns="http://www.w3.org/2000/svg" width="650px" height="650px" viewBox="0 0 6500 6500" preserveAspectRatio="xMidYMid meet">
<g id="layer101" fill="#5b615d" stroke="none">
 <path d="M1905 5789 c-14 -12 -22 -25 -19 -30 4 -6 13 -4 24 6 10 9 30 17 44 18 35 3 38 21 4 24 -15 1 -38 -7 -53 -18z"/>
 <path d="M4475 5761 c-7 -12 12 -24 25 -16 11 7 4 25 -10 25 -5 0 -11 -4 -15 -9z"/>
 <path d="M4431 5736 c-7 -8 -8 -17 -3 -20 6 -3 15 1 21 8 7 8 8 17 3 20 -6 3 -15 -1 -21 -8z"/>
 <path d="M4556 5742 c-3 -6 1 -15 8 -21 8 -7 17 -8 20 -3 3 6 -1 15 -8 21 -8 7 -17 8 -20 3z"/>
 <path d="M4351 5656 c-7 -8 -8 -17 -3 -20 6 -3 15 1 21 8 7 8 8 17 3 20 -6 3 -15 -1 -21 -8z"/>
 <path d="M4635 5650 c-4 -6 -3 -16 3 -22 6 -6 12 -6 17 2 4 6 3 16 -3 22 -6 6 -12 6 -17 -2z"/>
 <path d="M1465 3551 c-7 -12 12 -24 25 -16 11 7 4 25 -10 25 -5 0 -11 -4 -15 -9z"/>
 <path d="M4975 3531 c-7 -12 12 -24 25 -16 11 7 4 25 -10 25 -5 0 -11 -4 -15 -9z"/>
 <path d="M1456 3472 c-3 -5 3 -17 13 -26 11 -10 22 -13 25 -8 3 5 -3 17 -13 26 -11 10 -22 13 -25 8z"/>
 <path d="M1705 3420 c-4 -6 -3 -16 3 -22 6 -6 12 -6 17 2 4 6 3 16 -3 22 -6 6 -12 6 -17 -2z"/>
 <path d="M4815 3410 c-4 -6 -3 -16 3 -22 6 -6 12 -6 17 2 4 6 3 16 -3 22 -6 6 -12 6 -17 -2z"/>
 <path d="M4806 3242 c-3 -6 1 -15 8 -21 8 -7 17 -8 20 -3 3 6 -1 15 -8 21 -8 7 -17 8 -20 3z"/>
 <path d="M3105 2501 c-3 -6 3 -15 14 -21 12 -6 22 -6 26 -1 3 6 -3 15 -14 21 -12 6 -22 6 -26 1z"/>
 <path d="M3029 2248 c-5 -20 -4 -50 3 -54 15 -9 30 7 19 20 -6 7 -8 15 -5 18 3 3 1 9 -5 13 -6 3 -11 5 -12 3z"/>
 <path d="M3425 2221 c-7 -12 12 -24 25 -16 11 7 4 25 -10 25 -5 0 -11 -4 -15 -9z"/>
 <path d="M3096 2191 c-4 -5 -2 -12 4 -16 5 -3 10 -3 10 1 0 3 6 1 14 -5 10 -8 16 -9 21 -1 3 5 4 11 1 11 -3 1 -9 2 -13 3 -5 1 -13 5 -20 9 -6 4 -14 3 -17 -2z"/>
 <path d="M3325 2180 c-4 -6 -10 -8 -15 -5 -5 3 -11 1 -14 -4 -4 -5 -2 -12 3 -15 5 -4 12 -2 16 4 4 6 10 8 15 5 5 -3 11 -1 14 4 4 5 2 12 -3 15 -5 4 -12 2 -16 -4z"/>
 <path d="M2865 2130 c-4 -6 -3 -16 3 -22 6 -6 12 -6 17 2 4 6 3 16 -3 22 -6 6 -12 6 -17 -2z"/>
 <path d="M3595 2130 c-4 -6 -3 -16 3 -22 6 -6 12 -6 17 2 4 6 3 16 -3 22 -6 6 -12 6 -17 -2z"/>
 <path d="M2865 2080 c-4 -6 -1 -17 5 -25 7 -8 9 -15 6 -15 -4 0 -2 -9 4 -20 6 -11 15 -18 21 -15 5 4 4 15 -3 28 -7 12 -11 27 -10 34 3 16 -15 26 -23 13z"/>
 <path d="M3125 2001 c-7 -12 12 -24 25 -16 11 7 4 25 -10 25 -5 0 -11 -4 -15 -9z"/>
 <path d="M2726 1881 c-4 -5 -2 -12 4 -16 5 -3 10 -3 10 1 0 3 6 1 14 -5 10 -8 16 -9 21 -1 3 5 4 11 1 11 -3 1 -9 2 -13 3 -5 1 -13 5 -20 9 -6 4 -14 3 -17 -2z"/>
 <path d="M2325 1856 c-11 -8 -14 -16 -8 -19 6 -4 18 0 28 7 11 8 14 16 8 19 -6 4 -18 0 -28 -7z"/>
 <path d="M2251 1806 c-7 -8 -8 -17 -3 -20 6 -3 15 1 21 8 7 8 8 17 3 20 -6 3 -15 -1 -21 -8z"/>
 <path d="M2145 1671 c-9 -18 -11 -32 -5 -36 5 -3 16 8 25 24 9 18 11 32 5 36 -5 3 -16 -8 -25 -24z"/>
 <path d="M2366 1651 c-4 -5 -2 -12 4 -16 5 -3 10 -3 10 1 0 3 6 1 14 -5 10 -8 16 -9 21 -1 3 5 4 11 1 11 -3 1 -9 2 -13 3 -5 1 -13 5 -20 9 -6 4 -14 3 -17 -2z"/>
 <path d="M2426 1622 c-3 -6 1 -15 8 -21 8 -7 17 -8 20 -3 3 6 -1 15 -8 21 -8 7 -17 8 -20 3z"/>
 <path d="M4197 1623 c-4 -6 0 -18 7 -28 8 -11 16 -14 19 -8 4 6 0 18 -7 28 -8 11 -16 14 -19 8z"/>
 <path d="M2209 1576 c-1 -3 -2 -9 -3 -13 -1 -5 -5 -13 -9 -20 -4 -6 -3 -14 3 -18 5 -3 11 -4 11 -1 1 3 2 9 3 14 1 4 5 12 9 19 4 6 3 14 -3 18 -5 3 -11 4 -11 1z"/>
 <path d="M3647 1554 c-3 -4 -1 -16 5 -28 7 -11 12 -24 13 -28 0 -5 3 -8 8 -8 6 0 9 5 6 13 0 1 -2 10 -4 21 -4 23 -19 39 -28 30z"/>
 <path d="M3566 1472 c-3 -6 1 -15 8 -21 8 -7 17 -8 20 -3 3 6 -1 15 -8 21 -8 7 -17 8 -20 3z"/>
 <path d="M2196 1461 c-4 -5 -2 -12 4 -16 6 -4 8 -10 5 -15 -3 -5 -1 -11 4 -14 5 -4 12 -2 15 3 4 5 2 12 -4 16 -6 4 -8 10 -5 15 3 5 1 11 -4 14 -5 4 -12 2 -15 -3z"/>
 <path d="M2431 1386 c-7 -8 -8 -17 -3 -20 6 -3 15 1 21 8 7 8 8 17 3 20 -6 3 -15 -1 -21 -8z"/>
 <path d="M2990 1271 c-6 -12 -6 -22 -1 -26 6 -3 15 3 21 14 6 12 6 22 1 26 -6 3 -15 -3 -21 -14z"/>
 <path d="M3337 1273 c-4 -6 0 -18 7 -28 8 -11 16 -14 19 -8 4 6 0 18 -7 28 -8 11 -16 14 -19 8z"/>
 <path d="M2941 1196 c-7 -8 -8 -17 -3 -20 6 -3 15 1 21 8 7 8 8 17 3 20 -6 3 -15 -1 -21 -8z"/>
 <path d="M4131 1136 c-7 -8 -8 -17 -3 -20 6 -3 15 1 21 8 7 8 8 17 3 20 -6 3 -15 -1 -21 -8z"/>
 <path d="M4091 1096 c-7 -8 -8 -17 -3 -20 6 -3 15 1 21 8 7 8 8 17 3 20 -6 3 -15 -1 -21 -8z"/>
 <path d="M3535 1060 c-3 -5 8 -16 24 -25 18 -9 32 -11 36 -5 3 5 -8 16 -24 25 -18 9 -32 11 -36 5z"/>
 </g>
<g id="layer102" fill="#959696" stroke="none">
 <path d="M3057 2490 c-15 -12 -24 -26 -21 -31 4 -6 12 -5 22 4 10 8 26 17 37 19 11 2 19 8 18 13 -4 18 -29 16 -56 -5z"/>
 <path d="M3355 2491 c-3 -6 4 -15 15 -21 11 -6 20 -19 20 -30 0 -24 18 -36 26 -16 11 29 -45 92 -61 67z"/>
 <path d="M3251 2476 c-7 -8 -8 -17 -3 -20 6 -3 15 1 21 8 7 8 8 17 3 20 -6 3 -15 -1 -21 -8z"/>
 <path d="M3225 2440 c-4 -6 -3 -16 3 -22 6 -6 12 -6 17 2 4 6 3 16 -3 22 -6 6 -12 6 -17 -2z"/>
 <path d="M3019 2436 c-1 -3 -2 -9 -3 -13 -1 -5 -5 -13 -9 -20 -4 -6 -3 -14 3 -18 5 -3 11 -4 11 -1 1 3 2 9 3 14 1 4 5 12 9 19 4 6 3 14 -3 18 -5 3 -11 4 -11 1z"/>
 <path d="M2994 2356 c-8 -21 3 -49 16 -41 5 3 10 15 10 25 0 25 -18 36 -26 16z"/>
 <path d="M3394 2336 c-8 -21 3 -49 16 -41 5 3 10 15 10 25 0 25 -18 36 -26 16z"/>
 <path d="M2994 2286 c-4 -10 -2 -22 4 -28 8 -8 13 -7 18 6 4 10 2 22 -4 28 -8 8 -13 7 -18 -6z"/>
 <path d="M3184 2277 c-7 -20 -2 -47 11 -50 14 -3 19 43 6 56 -7 7 -12 6 -17 -6z"/>
 <path d="M3224 2277 c-7 -20 -2 -47 11 -50 14 -3 19 43 6 56 -7 7 -12 6 -17 -6z"/>
 <path d="M3036 2242 c-3 -6 -2 -13 4 -17 5 -3 10 -3 10 1 0 3 7 1 15 -6 8 -6 19 -9 25 -5 14 9 1 28 -15 21 -7 -2 -17 0 -23 6 -6 6 -12 6 -16 0z"/>
 <path d="M3155 2201 c-7 -12 12 -24 25 -16 11 7 4 25 -10 25 -5 0 -11 -4 -15 -9z"/>
 <path d="M3235 2191 c-7 -12 12 -24 25 -16 11 7 4 25 -10 25 -5 0 -11 -4 -15 -9z"/>
 <path d="M2465 1900 c-8 -12 20 -24 35 -15 6 3 8 11 5 16 -8 12 -32 12 -40 -1z"/>
 <path d="M2615 1900 c-8 -12 20 -24 35 -15 6 3 8 11 5 16 -8 12 -32 12 -40 -1z"/>
 <path d="M2675 1891 c-6 -11 13 -26 22 -17 3 3 12 1 20 -5 7 -6 13 -8 13 -4 0 4 6 2 14 -4 10 -8 16 -9 21 -1 3 5 4 11 1 11 -16 4 -26 7 -31 9 -3 1 -9 3 -14 4 -5 0 -13 4 -17 9 -10 10 -22 9 -29 -2z"/>
 <path d="M2795 1851 c-3 -6 3 -15 14 -21 12 -6 22 -6 26 -1 3 6 -3 15 -14 21 -12 6 -22 6 -26 1z"/>
 <path d="M3675 1851 c-7 -12 12 -24 25 -16 11 7 4 25 -10 25 -5 0 -11 -4 -15 -9z"/>
 <path d="M3825 1850 c-8 -12 20 -24 35 -15 6 3 8 11 5 16 -8 12 -32 12 -40 -1z"/>
 <path d="M3626 1843 c-4 -5 -12 -9 -17 -9 -5 -1 -11 -3 -14 -4 -3 -1 -9 -3 -15 -4 -5 0 -10 -4 -10 -8 0 -5 0 -11 0 -14 0 -4 6 -2 13 4 6 6 15 11 20 11 4 1 10 2 15 2 4 1 12 2 17 3 13 1 19 20 8 23 -5 2 -13 0 -17 -4z"/>
 <path d="M3926 1831 c-4 -5 -2 -12 4 -16 5 -3 10 -3 10 1 0 3 6 1 14 -5 10 -8 16 -9 21 -1 3 5 4 11 1 11 -3 1 -9 2 -13 3 -5 1 -13 5 -20 9 -6 4 -14 3 -17 -2z"/>
 <path d="M2221 1776 c-13 -13 -18 -26 -13 -30 5 -3 19 5 31 18 13 13 18 26 13 30 -5 3 -19 -5 -31 -18z"/>
 <path d="M4056 1772 c-3 -6 1 -15 8 -21 8 -7 17 -8 20 -3 3 6 -1 15 -8 21 -8 7 -17 8 -20 3z"/>
 <path d="M3421 1726 c-18 -19 -29 -36 -23 -39 5 -4 23 9 41 27 18 19 29 36 23 39 -5 4 -23 -9 -41 -27z"/>
 <path d="M4096 1742 c-3 -6 1 -15 8 -21 8 -7 17 -8 20 -3 3 6 -1 15 -8 21 -8 7 -17 8 -20 3z"/>
 <path d="M4136 1702 c-3 -5 3 -17 13 -26 11 -10 22 -13 25 -8 3 5 -3 17 -13 26 -11 10 -22 13 -25 8z"/>
 <path d="M3575 1611 c-3 -6 3 -15 14 -21 12 -6 22 -6 26 -1 3 6 -3 15 -14 21 -12 6 -22 6 -26 1z"/>
 <path d="M2115 1590 c-4 -6 -3 -16 3 -22 6 -6 12 -6 17 2 4 6 3 16 -3 22 -6 6 -12 6 -17 -2z"/>
 <path d="M3436 1581 c-10 -11 -13 -22 -8 -25 5 -3 17 3 26 13 10 11 13 22 8 25 -5 3 -17 -3 -26 -13z"/>
 <path d="M3329 1586 c-1 -3 -2 -9 -3 -13 -1 -5 -5 -14 -9 -20 -5 -7 -5 -13 -1 -13 3 0 1 -7 -6 -15 -6 -8 -9 -19 -5 -25 9 -14 28 -1 21 15 -2 7 1 18 7 24 6 6 7 11 3 11 -5 0 -3 6 3 14 8 10 9 16 1 21 -5 3 -11 4 -11 1z"/>
 <path d="M2416 1572 c-3 -6 1 -15 8 -21 8 -7 17 -8 20 -3 3 6 -1 15 -8 21 -8 7 -17 8 -20 3z"/>
 <path d="M3025 1570 c-4 -6 -3 -16 3 -22 6 -6 12 -6 17 2 4 6 3 16 -3 22 -6 6 -12 6 -17 -2z"/>
 <path d="M4216 1571 c-4 -5 -2 -12 3 -16 6 -3 8 -12 5 -19 -7 -17 12 -30 21 -16 4 6 2 17 -4 24 -6 7 -8 15 -5 18 3 3 1 9 -5 12 -5 4 -12 2 -15 -3z"/>
 <path d="M2364 1546 c-8 -21 3 -49 16 -41 5 3 10 15 10 25 0 25 -18 36 -26 16z"/>
 <path d="M2475 1540 c-4 -6 -3 -16 3 -22 6 -6 12 -6 17 2 4 6 3 16 -3 22 -6 6 -12 6 -17 -2z"/>
 <path d="M2104 1526 c-8 -21 3 -49 16 -41 5 3 10 15 10 25 0 25 -18 36 -26 16z"/>
 <path d="M3571 1526 c-7 -8 -8 -17 -3 -20 6 -3 15 1 21 8 7 8 8 17 3 20 -6 3 -15 -1 -21 -8z"/>
 <path d="M2421 1506 c-7 -8 -8 -17 -3 -20 6 -3 15 1 21 8 7 8 8 17 3 20 -6 3 -15 -1 -21 -8z"/>
 <path d="M3035 1508 c-9 -23 -2 -83 10 -83 14 0 19 75 6 88 -7 7 -12 5 -16 -5z"/>
 <path d="M3625 1510 c-4 -6 -3 -16 3 -22 6 -6 12 -6 17 2 4 6 3 16 -3 22 -6 6 -12 6 -17 -2z"/>
 <path d="M4234 1486 c-4 -10 -2 -22 4 -28 8 -8 13 -7 18 6 4 10 2 22 -4 28 -8 8 -13 7 -18 -6z"/>
 <path d="M2475 1470 c-4 -6 -3 -16 3 -22 6 -6 12 -6 17 2 4 6 3 16 -3 22 -6 6 -12 6 -17 -2z"/>
 <path d="M2104 1456 c-8 -21 3 -49 16 -41 5 3 10 15 10 25 0 25 -18 36 -26 16z"/>
 <path d="M4234 1406 c-8 -21 3 -49 16 -41 5 3 10 15 10 25 0 25 -18 36 -26 16z"/>
 <path d="M3025 1390 c-4 -6 -3 -16 3 -22 6 -6 12 -6 17 2 4 6 3 16 -3 22 -6 6 -12 6 -17 -2z"/>
 <path d="M3304 1386 c-4 -10 -2 -22 4 -28 8 -8 13 -7 18 6 4 10 2 22 -4 28 -8 8 -13 7 -18 -6z"/>
 <path d="M3019 1346 c-1 -3 -2 -9 -3 -13 -1 -5 -5 -13 -9 -20 -4 -6 -3 -14 3 -18 5 -3 11 -4 11 -1 1 3 2 9 3 14 1 4 5 12 9 19 4 6 3 14 -3 18 -5 3 -11 4 -11 1z"/>
 <path d="M4225 1340 c-4 -6 -3 -16 3 -22 6 -6 12 -6 17 2 4 6 3 16 -3 22 -6 6 -12 6 -17 -2z"/>
 <path d="M3316 1331 c-4 -5 -2 -12 4 -16 6 -4 8 -10 5 -15 -3 -5 -1 -11 4 -14 5 -4 12 -2 15 3 4 5 2 12 -4 16 -6 4 -8 10 -5 15 3 5 1 11 -4 14 -5 4 -12 2 -15 -3z"/>
 <path d="M3466 1321 c-4 -5 -2 -12 4 -16 5 -3 10 -3 10 1 0 3 6 1 14 -5 10 -8 16 -9 21 -1 3 5 4 11 1 11 -3 1 -9 2 -13 3 -5 1 -13 5 -20 9 -6 4 -14 3 -17 -2z"/>
 <path d="M4185 1221 c-9 -18 -11 -32 -5 -36 5 -3 16 8 25 24 9 18 11 32 5 36 -5 3 -16 -8 -25 -24z"/>
 <path d="M2916 1171 c-10 -11 -13 -22 -8 -25 5 -3 17 3 26 13 10 11 13 22 8 25 -5 3 -17 -3 -26 -13z"/>
 <path d="M4111 1116 c-7 -8 -8 -17 -3 -20 6 -3 15 1 21 8 7 8 8 17 3 20 -6 3 -15 -1 -21 -8z"/>
 <path d="M3466 1112 c-3 -6 1 -15 8 -21 8 -7 17 -8 20 -3 3 6 -1 15 -8 21 -8 7 -17 8 -20 3z"/>
 <path d="M2784 1086 c-10 -8 -22 -14 -26 -15 -5 0 -8 -3 -8 -6 0 -4 6 -6 13 -4 1 0 10 2 21 4 24 5 41 21 29 28 -6 4 -18 0 -29 -7z"/>
 <path d="M2396 1081 c-4 -5 -2 -12 4 -16 5 -3 10 -3 10 1 0 3 6 1 14 -5 10 -8 16 -9 21 -1 3 5 4 11 1 11 -3 1 -9 2 -13 3 -5 1 -13 5 -20 9 -6 4 -14 3 -17 -2z"/>
 <path d="M2515 1050 c-8 -12 20 -24 35 -15 6 3 8 11 5 16 -8 12 -32 12 -40 -1z"/>
 <path d="M2635 1050 c-8 -12 20 -24 35 -15 6 3 8 11 5 16 -8 12 -32 12 -40 -1z"/>
 <path d="M3606 1031 c-4 -5 -2 -12 4 -16 5 -3 10 -3 10 1 0 3 7 1 15 -6 8 -7 15 -9 15 -5 0 4 7 2 15 -5 8 -6 19 -9 25 -5 14 9 1 28 -15 21 -7 -2 -18 1 -24 7 -6 6 -11 7 -11 3 0 -5 -6 -3 -14 3 -9 8 -16 8 -20 2z"/>
 <path d="M3956 1021 c-4 -6 -13 -8 -20 -5 -17 7 -30 -12 -16 -21 6 -4 16 -2 23 3 7 6 15 11 20 11 8 1 11 11 4 17 -3 3 -8 1 -11 -5z"/>
 <path d="M3715 1000 c-8 -12 20 -24 35 -15 6 3 8 11 5 16 -8 12 -32 12 -40 -1z"/>
 <path d="M3865 1001 c-7 -12 12 -24 25 -16 11 7 4 25 -10 25 -5 0 -11 -4 -15 -9z"/>
 </g>
<g id="layer103" fill="#463e32" stroke="none">
 <path d="M1975 5800 c-3 -5 8 -16 24 -25 18 -9 32 -11 36 -5 3 5 -8 16 -24 25 -18 9 -32 11 -36 5z"/>
 <path d="M2046 5762 c-3 -6 10 -22 28 -36 35 -26 61 -21 28 6 -40 33 -50 39 -56 30z"/>
 <path d="M4515 5760 c-7 -11 35 -31 49 -22 5 3 1 11 -9 19 -22 16 -32 16 -40 3z"/>
 <path d="M1876 5753 c-4 -5 -12 -8 -17 -8 -5 0 -8 -4 -6 -10 3 -12 36 -14 44 -2 7 12 -11 30 -21 20z"/>
 <path d="M4595 5710 c-3 -6 -13 -9 -20 -8 -8 2 -13 -1 -12 -7 1 -5 5 -9 8 -8 4 1 5 -7 2 -18 -3 -12 -11 -18 -19 -15 -17 6 -39 -30 -24 -39 6 -3 13 1 16 10 4 9 13 14 21 11 9 -4 19 6 29 29 8 19 17 35 20 35 3 0 3 -4 0 -9 -3 -5 1 -14 8 -20 25 -21 26 5 2 28 -16 15 -26 19 -31 11z"/>
 <path d="M2136 5692 c-3 -5 5 -19 18 -31 13 -13 26 -18 30 -13 3 5 -5 19 -18 31 -13 13 -26 18 -30 13z"/>
 <path d="M1804 5666 c-8 -20 3 -64 22 -94 20 -31 36 -18 18 16 -7 15 -14 39 -14 54 0 31 -17 47 -26 24z"/>
 <path d="M1878 5674 c-4 -4 2 -20 13 -36 20 -28 22 -28 40 -12 10 9 16 21 13 25 -8 14 -25 0 -18 -14 3 -7 -4 1 -18 16 -13 16 -26 25 -30 21z"/>
 <path d="M2196 5641 c-6 -8 5 -20 31 -35 23 -13 22 12 -2 28 -13 9 -26 12 -29 7z"/>
 <path d="M4331 5636 c-7 -8 -8 -17 -3 -20 6 -3 15 1 21 8 7 8 8 17 3 20 -6 3 -15 -1 -21 -8z"/>
 <path d="M4536 5597 c-9 -12 -14 -17 -11 -10 8 18 -11 25 -25 8 -10 -12 -10 -18 0 -30 14 -17 44 -5 60 25 15 28 -5 34 -24 7z"/>
 <path d="M4636 5611 c-4 -6 -5 -14 -2 -19 2 -4 -13 -33 -34 -65 -21 -31 -34 -59 -30 -62 9 -6 70 70 70 87 0 17 2 23 12 36 8 9 8 16 1 23 -8 8 -13 7 -17 0z"/>
 <path d="M2286 5593 c-3 -4 -1 -11 4 -18 7 -8 -1 -16 -26 -28 -19 -10 -32 -22 -29 -27 8 -13 108 37 103 52 -5 13 -44 29 -52 21z"/>
 <path d="M1856 5542 c-3 -5 5 -19 18 -31 13 -13 26 -18 30 -13 3 5 -5 19 -18 31 -13 13 -26 18 -30 13z"/>
 <path d="M4239 5543 c-1 -4 -1 -12 0 -16 1 -5 -3 -6 -8 -3 -22 14 -19 -13 4 -28 13 -9 26 -12 30 -7 3 5 0 13 -6 16 -5 4 -8 13 -5 21 3 7 1 16 -4 19 -6 4 -11 3 -11 -2z"/>
 <path d="M2169 5493 c-62 -41 -89 -65 -84 -73 5 -8 78 37 118 71 19 15 -11 17 -34 2z"/>
 <path d="M1926 5482 c-3 -6 1 -15 8 -21 8 -7 17 -8 20 -3 3 6 -1 15 -8 21 -8 7 -17 8 -20 3z"/>
 <path d="M4306 5461 c-3 -5 5 -16 19 -25 24 -16 45 -6 22 11 -24 19 -36 23 -41 14z"/>
 <path d="M1966 5452 c-3 -6 1 -15 8 -21 8 -7 17 -8 20 -3 3 6 -1 15 -8 21 -8 7 -17 8 -20 3z"/>
 <path d="M4366 5422 c-3 -5 3 -17 13 -26 11 -10 22 -13 25 -8 3 5 -3 17 -13 26 -11 10 -22 13 -25 8z"/>
 <path d="M2051 5406 c-7 -8 -8 -17 -3 -20 6 -3 15 1 21 8 7 8 8 17 3 20 -6 3 -15 -1 -21 -8z"/>
 <path d="M4476 5391 c-10 -11 -13 -22 -8 -25 5 -3 17 3 26 13 10 11 13 22 8 25 -5 3 -17 -3 -26 -13z"/>
 <path d="M4426 5372 c-3 -6 1 -15 8 -21 8 -7 17 -8 20 -3 3 6 -1 15 -8 21 -8 7 -17 8 -20 3z"/>
 <path d="M1495 3551 c-7 -12 12 -24 25 -16 11 7 4 25 -10 25 -5 0 -11 -4 -15 -9z"/>
 <path d="M1565 3531 c-3 -6 3 -15 14 -21 12 -6 22 -6 26 -1 3 6 -3 15 -14 21 -12 6 -22 6 -26 1z"/>
 <path d="M4931 3519 c-52 -23 -46 -44 7 -22 43 17 57 29 45 36 -5 3 -28 -3 -52 -14z"/>
 <path d="M5015 3531 c-7 -12 12 -24 25 -16 11 7 4 25 -10 25 -5 0 -11 -4 -15 -9z"/>
 <path d="M1427 3484 c-3 -3 -3 -13 0 -22 5 -11 2 -14 -10 -9 -31 12 -44 -43 -20 -81 20 -33 34 -17 16 19 -20 40 -5 59 29 38 29 -19 53 -18 53 1 0 8 -7 15 -15 16 -41 3 -43 4 -31 17 15 19 -5 38 -22 21z"/>
 <path d="M1675 3470 c-3 -5 1 -12 8 -17 7 -4 17 -17 21 -27 5 -14 10 -16 17 -9 8 8 8 17 0 31 -12 23 -38 35 -46 22z"/>
 <path d="M5056 3462 c-3 -5 3 -17 13 -26 11 -10 22 -13 25 -8 3 5 -3 17 -13 26 -11 10 -22 13 -25 8z"/>
 <path d="M4814 3446 c-8 -21 3 -49 16 -41 5 3 10 15 10 25 0 25 -18 36 -26 16z"/>
 <path d="M5009 3434 c-11 -14 -10 -18 6 -30 13 -10 22 -11 32 -3 15 13 7 33 -9 23 -6 -4 -8 -2 -4 4 11 18 -11 23 -25 6z"/>
 <path d="M5086 3365 c-16 -24 -6 -45 11 -22 19 24 23 36 14 41 -5 3 -16 -5 -25 -19z"/>
 <path d="M1426 3342 c-3 -6 1 -15 8 -21 8 -7 17 -8 20 -3 3 6 -1 15 -8 21 -8 7 -17 8 -20 3z"/>
 <path d="M5051 3316 c-7 -8 -8 -17 -3 -20 6 -3 15 1 21 8 7 8 8 17 3 20 -6 3 -15 -1 -21 -8z"/>
 <path d="M4805 3278 c-12 -31 1 -62 28 -65 32 -4 47 16 18 24 -12 3 -21 13 -21 24 0 22 -18 35 -25 17z"/>
 <path d="M1545 3271 c-6 -11 13 -26 22 -17 3 3 12 1 19 -5 7 -6 18 -8 24 -4 14 9 1 28 -16 21 -7 -3 -16 -1 -19 4 -8 13 -22 13 -30 1z"/>
 <path d="M1635 3250 c-8 -12 20 -24 35 -15 6 3 8 11 5 16 -8 12 -32 12 -40 -1z"/>
 <path d="M1695 3251 c-7 -12 12 -24 25 -16 11 7 4 25 -10 25 -5 0 -11 -4 -15 -9z"/>
 <path d="M4885 3241 c-7 -12 12 -24 25 -16 11 7 4 25 -10 25 -5 0 -11 -4 -15 -9z"/>
 <path d="M3305 2510 c-5 -9 6 -15 62 -35 7 -2 15 0 18 6 4 5 -9 16 -29 24 -42 18 -43 18 -51 5z"/>
 <path d="M3156 2472 c-3 -6 1 -15 8 -21 8 -7 17 -8 20 -3 3 6 -1 15 -8 21 -8 7 -17 8 -20 3z"/>
 <path d="M3020 2451 c-6 -12 -6 -22 -1 -26 6 -3 15 3 21 14 6 12 6 22 1 26 -6 3 -15 -3 -21 -14z"/>
 <path d="M3184 2416 c-8 -21 3 -49 16 -41 5 3 10 15 10 25 0 25 -18 36 -26 16z"/>
 <path d="M2995 2380 c-4 -6 -3 -16 3 -22 6 -6 12 -6 17 2 4 6 3 16 -3 22 -6 6 -12 6 -17 -2z"/>
 <path d="M3184 2327 c-7 -20 -2 -47 11 -50 14 -3 19 43 6 56 -7 7 -12 6 -17 -6z"/>
 <path d="M3394 2286 c-4 -10 -2 -22 4 -28 8 -8 13 -7 18 6 4 10 2 22 -4 28 -8 8 -13 7 -18 -6z"/>
 <path d="M3515 2251 c-3 -5 -1 -12 5 -16 6 -4 8 -10 5 -15 -3 -5 4 -15 15 -22 12 -7 30 -28 41 -45 18 -28 23 -31 40 -22 23 12 20 35 -4 31 -8 -1 -18 2 -22 8 -4 6 -3 10 2 9 20 -3 25 2 13 15 -6 8 -19 12 -27 9 -12 -5 -15 -2 -10 10 4 11 -2 22 -16 32 -25 17 -34 19 -42 6z"/>
 <path d="M2911 2236 c-6 -7 -8 -16 -5 -19 3 -3 3 -11 -1 -17 -5 -8 -10 -8 -20 0 -11 9 -17 4 -31 -21 -16 -31 -15 -33 2 -46 16 -12 20 -12 29 3 6 9 19 28 29 42 30 38 27 94 -3 58z"/>
 <path d="M3050 2221 c-8 -17 -6 -22 11 -32 15 -7 24 -8 32 0 7 7 5 12 -6 17 -9 3 -15 10 -12 14 3 5 1 11 -4 15 -6 3 -15 -3 -21 -14z"/>
 <path d="M3224 2226 c-8 -21 3 -49 16 -41 5 3 10 15 10 25 0 25 -18 36 -26 16z"/>
 <path d="M3455 2231 c-7 -13 17 -24 40 -19 9 1 16 8 16 13 0 14 -48 19 -56 6z"/>
 <path d="M2945 2219 c-8 -11 6 -16 42 -15 18 1 34 6 35 11 3 12 -70 16 -77 4z"/>
 <path d="M3332 2214 c-18 -7 -31 -18 -27 -24 4 -6 11 -8 16 -4 5 3 16 0 24 -6 18 -15 32 -6 30 19 -2 29 -6 31 -43 15z"/>
 <path d="M3111 2201 c-13 -24 -3 -35 17 -18 12 9 14 9 9 0 -5 -7 1 -17 14 -23 16 -9 24 -8 40 6 18 16 17 40 -2 28 -5 -3 -7 -10 -4 -15 3 -5 -1 -6 -9 -3 -9 3 -14 10 -11 15 3 4 -3 13 -14 18 -26 15 -29 14 -40 -8z"/>
 <path d="M3395 2211 c-7 -12 12 -24 25 -16 11 7 4 25 -10 25 -5 0 -11 -4 -15 -9z"/>
 <path d="M3266 2192 c-3 -5 3 -17 13 -26 11 -10 22 -13 25 -8 3 5 -3 17 -13 26 -11 10 -22 13 -25 8z"/>
 <path d="M3579 2062 c-16 -31 -41 -58 -75 -82 -27 -19 -50 -39 -50 -45 1 -5 4 -9 9 -7 4 1 6 -1 6 -5 -3 -20 3 -23 22 -13 14 8 17 15 10 24 -7 8 -4 15 10 24 10 7 19 9 18 5 -3 -20 2 -24 16 -13 8 7 12 16 9 22 -8 13 17 40 32 34 7 -2 20 4 29 14 14 15 15 23 6 34 -6 7 -9 20 -5 29 3 8 1 18 -4 21 -6 3 -21 -15 -33 -42z"/>
 <path d="M2854 2055 c-14 -10 -16 -17 -8 -25 7 -7 15 -5 28 9 21 23 6 36 -20 16z"/>
 <path d="M2865 1999 c-6 -9 20 -31 28 -22 10 9 39 -19 33 -33 -3 -7 2 -18 10 -24 13 -12 18 -7 15 13 -1 4 8 3 19 -3 11 -6 20 -8 20 -4 0 3 6 1 14 -5 10 -8 16 -8 25 3 8 9 8 16 2 20 -5 4 -12 2 -16 -4 -6 -10 -43 9 -83 44 -23 20 -59 29 -67 15z"/>
 <path d="M3145 2000 c-8 -12 20 -24 35 -15 6 3 8 11 5 16 -8 12 -32 12 -40 -1z"/>
 <path d="M3215 2000 c-8 -13 20 -24 41 -16 20 8 9 26 -16 26 -10 0 -22 -5 -25 -10z"/>
 <path d="M3067 1984 c-15 -8 -25 -19 -22 -24 6 -10 61 10 64 25 4 15 -12 15 -42 -1z"/>
 <path d="M3295 1990 c-9 -14 45 -34 58 -21 7 7 1 14 -17 21 -33 12 -33 12 -41 0z"/>
 <path d="M3386 1952 c-3 -5 3 -17 13 -26 11 -10 22 -13 25 -8 3 5 -3 17 -13 26 -11 10 -22 13 -25 8z"/>
 <path d="M2535 1911 c-7 -13 17 -24 40 -19 9 1 16 8 16 13 0 14 -48 19 -56 6z"/>
 <path d="M2365 1877 c-10 -8 -14 -16 -9 -19 14 -9 56 11 49 22 -8 13 -18 13 -40 -3z"/>
 <path d="M3905 1840 c-3 -5 -4 -11 -1 -11 16 -4 26 -7 31 -9 3 -1 8 -3 13 -4 4 -1 17 -7 29 -14 13 -7 24 -8 28 -3 3 6 -4 15 -15 21 -11 6 -20 8 -20 4 0 -3 -7 -1 -15 6 -8 7 -15 9 -15 5 0 -4 -6 -2 -14 4 -10 8 -16 9 -21 1z"/>
 <path d="M3512 1799 c-29 -16 -50 -34 -47 -39 4 -6 26 1 53 17 58 33 66 39 55 46 -5 3 -33 -8 -61 -24z"/>
 <path d="M4025 1791 c-3 -6 3 -15 14 -21 12 -6 22 -6 26 -1 3 6 -3 15 -14 21 -12 6 -22 6 -26 1z"/>
 <path d="M2906 1782 c-3 -5 5 -19 18 -31 13 -13 26 -18 30 -13 3 5 -5 19 -18 31 -13 13 -26 18 -30 13z"/>
 <path d="M2285 1648 c-34 -18 -65 -50 -59 -60 4 -5 16 0 28 11 11 11 34 24 49 30 16 6 25 15 22 21 -8 13 -15 12 -40 -2z"/>
 <path d="M3340 1621 c-11 -23 -16 -42 -10 -46 5 -3 18 12 30 34 11 23 16 42 10 46 -5 3 -18 -12 -30 -34z"/>
 <path d="M2124 1624 c-4 -10 -9 -22 -11 -26 -2 -4 1 -9 6 -13 15 -9 35 35 22 48 -7 7 -12 5 -17 -9z"/>
 <path d="M4216 1581 c-4 -5 -2 -12 4 -16 6 -4 8 -10 5 -15 -3 -5 -1 -11 4 -14 5 -4 12 -2 15 3 4 5 2 12 -4 16 -6 4 -8 10 -5 15 3 5 1 11 -4 14 -5 4 -12 2 -15 -3z"/>
 <path d="M2105 1550 c-4 -6 -3 -16 3 -22 6 -6 12 -6 17 2 4 6 3 16 -3 22 -6 6 -12 6 -17 -2z"/>
 <path d="M2434 1546 c-8 -21 3 -49 16 -41 5 3 10 15 10 25 0 25 -18 36 -26 16z"/>
 <path d="M3405 1529 c-12 -22 -14 -34 -6 -42 7 -7 13 -2 21 18 6 15 13 31 15 36 3 4 1 10 -4 14 -6 3 -17 -9 -26 -26z"/>
 <path d="M3035 1540 c-4 -6 -3 -16 3 -22 6 -6 12 -6 17 2 4 6 3 16 -3 22 -6 6 -12 6 -17 -2z"/>
 <path d="M2474 1506 c-4 -10 -2 -22 4 -28 8 -8 13 -7 18 6 4 10 2 22 -4 28 -8 8 -13 7 -18 -6z"/>
 <path d="M3295 1477 c-9 -22 -2 -62 10 -60 6 1 11 14 13 29 4 32 -14 56 -23 31z"/>
 <path d="M3035 1430 c-4 -6 -3 -16 3 -22 6 -6 12 -6 17 2 4 6 3 16 -3 22 -6 6 -12 6 -17 -2z"/>
 <path d="M3396 1421 c-4 -5 -2 -12 4 -16 6 -4 8 -10 5 -15 -7 -12 45 -71 56 -64 5 3 -4 22 -20 41 -17 20 -28 40 -25 44 2 4 0 10 -5 13 -5 4 -12 2 -15 -3z"/>
 <path d="M2226 1402 c-3 -5 3 -17 13 -26 11 -10 22 -13 25 -8 3 5 -3 17 -13 26 -11 10 -22 13 -25 8z"/>
 <path d="M4235 1370 c-4 -6 -3 -16 3 -22 6 -6 12 -6 17 2 4 6 3 16 -3 22 -6 6 -12 6 -17 -2z"/>
 <path d="M2275 1360 c-7 -12 32 -33 45 -25 6 4 8 10 5 14 -7 13 -44 20 -50 11z"/>
 <path d="M3613 1341 c-32 -27 -91 -36 -120 -18 -6 4 -14 3 -17 -2 -4 -5 -2 -12 4 -16 5 -3 10 -3 10 1 0 3 6 2 13 -3 10 -8 72 -11 72 -4 0 2 9 4 19 6 24 5 71 51 60 58 -5 3 -23 -7 -41 -22z"/>
 <path d="M2125 1340 c-8 -13 13 -52 25 -45 9 6 2 43 -11 50 -4 3 -10 1 -14 -5z"/>
 <path d="M3316 1321 c-4 -5 -2 -12 4 -16 6 -4 8 -10 5 -15 -3 -5 -1 -11 4 -14 5 -4 12 -2 15 3 4 5 2 12 -4 16 -6 4 -8 10 -5 15 3 5 1 11 -4 14 -5 4 -12 2 -15 -3z"/>
 <path d="M4215 1290 c-4 -6 -3 -16 3 -22 6 -6 12 -6 17 2 4 6 3 16 -3 22 -6 6 -12 6 -17 -2z"/>
 <path d="M4190 1221 c-6 -12 -6 -22 -1 -26 6 -3 15 3 21 14 6 12 6 22 1 26 -6 3 -15 -3 -21 -14z"/>
 <path d="M2206 1202 c-3 -5 5 -19 18 -31 13 -13 26 -18 30 -13 3 5 -5 19 -18 31 -13 13 -26 18 -30 13z"/>
 <path d="M3406 1162 c-3 -5 8 -21 23 -36 16 -15 31 -23 35 -18 3 5 -8 21 -23 36 -16 15 -31 23 -35 18z"/>
 <path d="M2803 1090 c-18 -11 -33 -17 -33 -14 0 4 -6 2 -12 -4 -7 -6 -16 -11 -20 -11 -5 -1 -8 -3 -8 -6 0 -3 0 -8 0 -11 0 -4 7 -1 15 6 8 7 15 9 15 5 0 -4 7 -2 15 5 8 7 15 10 15 6 0 -4 14 1 30 9 17 9 28 20 25 25 -8 13 -4 13 -42 -10z"/>
 <path d="M2386 1081 c-4 -5 -2 -12 4 -16 5 -3 10 -3 10 1 0 3 7 1 15 -6 8 -7 15 -9 15 -5 0 4 6 2 14 -4 10 -8 16 -9 21 -1 3 5 4 11 1 11 -16 4 -26 7 -31 9 -3 1 -8 3 -12 4 -5 1 -13 5 -20 9 -6 4 -14 3 -17 -2z"/>
 <path d="M3965 1020 c-4 -6 -10 -8 -15 -5 -5 3 -11 1 -14 -4 -4 -5 -2 -12 3 -15 5 -4 12 -2 16 4 4 6 10 8 15 5 5 -3 11 -1 14 4 4 5 2 12 -3 15 -5 4 -12 2 -16 -4z"/>
 <path d="M3695 1001 c-7 -12 12 -24 25 -16 11 7 4 25 -10 25 -5 0 -11 -4 -15 -9z"/>
 <path d="M3885 1001 c-7 -12 12 -24 25 -16 11 7 4 25 -10 25 -5 0 -11 -4 -15 -9z"/>
 </g>
<g id="layer104" fill="#f7d3a2" stroke="none">
 <path d="M1940 5802 c-26 -8 -60 -45 -60 -65 0 -10 16 -46 37 -78 20 -33 34 -62 31 -65 -7 -6 -63 80 -77 119 -13 35 -27 34 -46 -3 -30 -58 -17 -115 40 -179 38 -42 166 -141 181 -141 5 0 36 20 68 44 32 24 94 62 137 85 44 24 77 47 74 52 -4 5 -30 20 -58 34 -29 14 -81 51 -117 81 -114 96 -172 128 -210 116z"/>
 <path d="M4484 5763 c-24 -5 -79 -55 -188 -169 l-77 -81 53 -34 c29 -19 79 -55 112 -81 33 -27 63 -48 67 -48 4 0 39 30 77 68 82 80 123 146 124 200 0 41 -27 95 -46 89 -6 -2 -26 -34 -43 -70 -18 -37 -37 -67 -43 -67 -14 0 -13 5 14 45 14 20 30 52 37 72 10 31 9 37 -7 53 -22 21 -50 29 -80 23z"/>
 <path d="M1436 3528 c-23 -32 -20 -45 14 -63 17 -9 30 -20 30 -25 0 -14 -7 -13 -36 6 -23 16 -26 15 -44 -1 -24 -21 -19 -44 17 -93 49 -66 168 -116 260 -110 l48 3 -1 98 c-1 69 -6 103 -15 112 -8 7 -49 31 -92 54 -94 49 -156 55 -181 19z"/>
 <path d="M4955 3522 c-27 -10 -69 -30 -92 -44 l-41 -27 -7 -83 c-4 -46 -5 -96 -3 -113 3 -29 4 -30 56 -29 74 2 176 54 220 112 36 49 38 60 18 87 -13 17 -16 18 -42 5 -16 -8 -32 -16 -36 -18 -5 -2 -8 0 -8 5 0 4 14 16 30 25 34 19 38 37 13 66 -26 30 -52 33 -108 14z"/>
 <path d="M3146 2472 c-3 -5 5 -19 18 -31 13 -13 26 -18 30 -13 3 5 -5 19 -18 31 -13 13 -26 18 -30 13z"/>
 <path d="M3225 2300 c-4 -6 -3 -16 3 -22 6 -6 12 -6 17 2 4 6 3 16 -3 22 -6 6 -12 6 -17 -2z"/>
 <path d="M3365 2231 c-7 -12 12 -24 25 -16 11 7 4 25 -10 25 -5 0 -11 -4 -15 -9z"/>
 <path d="M2955 2223 c-60 -14 -103 -99 -84 -167 12 -45 68 -109 109 -126 27 -11 32 -10 60 14 17 14 47 30 68 36 85 23 215 5 279 -39 l41 -29 49 30 c67 42 103 77 123 121 23 50 15 82 -31 128 -49 49 -78 50 -189 9 -102 -38 -175 -39 -280 -6 -94 29 -120 34 -145 29z"/>
 <path d="M3315 2210 c-4 -6 -10 -8 -15 -5 -5 3 -11 1 -14 -4 -4 -5 -2 -12 3 -15 5 -4 12 -2 16 4 4 6 10 8 15 5 5 -3 11 -1 14 4 4 5 2 12 -3 15 -5 4 -12 2 -16 -4z"/>
 <path d="M3695 1851 c-7 -12 12 -24 25 -16 11 7 4 25 -10 25 -5 0 -11 -4 -15 -9z"/>
 <path d="M2886 1792 c-3 -6 1 -15 8 -21 8 -7 17 -8 20 -3 3 6 -1 15 -8 21 -8 7 -17 8 -20 3z"/>
 <path d="M2936 1742 c-3 -6 1 -15 8 -21 8 -7 17 -8 20 -3 3 6 -1 15 -8 21 -8 7 -17 8 -20 3z"/>
 <path d="M4116 1722 c-3 -6 1 -15 8 -21 8 -7 17 -8 20 -3 3 6 -1 15 -8 21 -8 7 -17 8 -20 3z"/>
 <path d="M3515 1620 c-8 -13 20 -24 41 -16 20 8 9 26 -16 26 -10 0 -22 -5 -25 -10z"/>
 <path d="M3616 1592 c-3 -5 3 -17 13 -26 11 -10 22 -13 25 -8 3 5 -3 17 -13 26 -11 10 -22 13 -25 8z"/>
 <path d="M3385 1480 c-4 -6 -3 -16 3 -22 6 -6 12 -6 17 2 4 6 3 16 -3 22 -6 6 -12 6 -17 -2z"/>
 <path d="M3426 1352 c-3 -6 1 -15 8 -21 8 -7 17 -8 20 -3 3 6 -1 15 -8 21 -8 7 -17 8 -20 3z"/>
 <path d="M2196 1222 c-3 -6 1 -15 8 -21 8 -7 17 -8 20 -3 3 6 -1 15 -8 21 -8 7 -17 8 -20 3z"/>
 <path d="M3396 1182 c-3 -6 1 -15 8 -21 8 -7 17 -8 20 -3 3 6 -1 15 -8 21 -8 7 -17 8 -20 3z"/>
 <path d="M2246 1172 c-3 -6 1 -15 8 -21 8 -7 17 -8 20 -3 3 6 -1 15 -8 21 -8 7 -17 8 -20 3z"/>
 <path d="M2545 1051 c-7 -12 12 -24 25 -16 11 7 4 25 -10 25 -5 0 -11 -4 -15 -9z"/>
 <path d="M3845 1001 c-7 -12 12 -24 25 -16 11 7 4 25 -10 25 -5 0 -11 -4 -15 -9z"/>
 </g>
<g id="layer105" fill="#fefefe" stroke="none">
 <path d="M3271 2484 c-48 -40 -54 -64 -46 -187 6 -86 11 -110 23 -115 9 -3 48 5 87 19 l70 25 8 87 c9 101 1 144 -33 168 -45 32 -74 33 -109 3z"/>
 <path d="M3048 2473 c-14 -16 -31 -45 -38 -65 -15 -50 -17 -145 -2 -160 17 -17 184 -70 192 -61 4 4 5 61 2 126 l-4 118 -36 35 c-44 42 -79 44 -114 7z"/>
 <path d="M2465 1900 c-162 -33 -297 -151 -341 -300 -30 -101 -14 -253 34 -329 85 -135 205 -209 373 -231 68 -9 99 -8 160 4 109 21 165 50 240 127 93 93 113 146 113 299 0 107 -2 119 -28 173 -38 77 -130 168 -209 207 -104 51 -238 71 -342 50z m-48 -280 c18 -11 39 -36 48 -56 45 -108 -16 -214 -123 -214 -79 0 -132 58 -132 145 0 87 51 144 130 145 28 0 57 -8 77 -20z"/>
 <path d="M2381 1566 c-17 -20 -10 -67 11 -80 13 -8 22 -6 37 8 26 24 27 48 3 69 -23 21 -36 21 -51 3z"/>
 <path d="M3695 1853 c-56 -7 -140 -35 -182 -60 -24 -14 -70 -54 -103 -90 -97 -106 -127 -217 -96 -355 58 -262 364 -426 641 -343 106 32 207 123 255 228 57 127 58 261 2 375 -32 66 -137 166 -208 199 -92 42 -209 59 -309 46z m-105 -259 c102 -41 109 -218 11 -269 -68 -34 -147 -10 -176 55 -39 86 -13 178 60 211 49 23 55 23 105 3z"/>
 <path d="M3577 1522 c-23 -25 -21 -48 5 -66 39 -27 77 11 54 55 -15 31 -38 35 -59 11z"/>
 </g>
<g id="layer106" fill="#090c0d" stroke="none">
 <path d="M1793 5872 c-70 -64 -87 -101 -87 -187 0 -89 19 -127 112 -219 l70 -69 -52 -68 c-241 -316 -303 -767 -221 -1600 l6 -57 -38 14 c-50 17 -137 18 -171 0 -75 -39 -102 -104 -102 -241 l0 -102 64 -61 c63 -61 119 -93 186 -106 76 -16 72 -11 66 -84 -56 -624 -65 -982 -32 -1212 l18 -124 -23 -16 c-52 -33 -142 -127 -165 -172 -84 -166 -35 -371 125 -521 36 -33 88 -70 116 -83 109 -50 239 -55 351 -13 l55 21 72 -50 c260 -179 692 -287 1138 -285 461 3 780 79 1009 240 l55 39 60 -26 c52 -22 75 -25 170 -25 100 0 116 3 172 29 85 39 201 158 245 252 31 65 33 76 33 179 0 104 -2 114 -32 176 -31 62 -102 141 -162 180 l-24 15 21 115 c46 253 62 491 62 955 0 177 3 335 6 352 5 25 12 31 40 37 67 12 126 46 190 107 l64 61 0 106 c0 121 -16 169 -69 214 -40 33 -65 40 -134 35 l-53 -3 0 365 c1 403 -8 501 -64 737 -49 205 -139 408 -235 531 -19 25 -35 50 -35 55 0 5 23 34 51 64 133 147 145 303 31 404 -66 58 -112 79 -173 79 -79 0 -127 -29 -229 -138 -101 -109 -76 -103 -206 -48 -86 36 -282 91 -392 110 -163 27 -357 39 -557 33 -270 -9 -453 -40 -664 -112 -41 -14 -84 -25 -95 -25 -29 0 -92 34 -144 79 -24 20 -67 53 -94 74 l-51 37 -116 0 -116 -1 -52 -47z m243 -113 c27 -17 74 -53 104 -78 82 -69 127 -101 144 -101 32 0 24 -18 -17 -36 -23 -10 -82 -47 -130 -81 l-89 -64 -64 47 c-125 88 -172 154 -159 220 3 18 10 36 15 39 9 5 70 -75 70 -93 0 -5 8 -16 19 -26 16 -14 20 -15 30 -2 10 12 5 27 -28 82 -23 37 -41 71 -41 76 0 18 42 48 68 48 15 0 50 -14 78 -31z m2514 -19 c19 -10 19 -11 0 -61 -11 -27 -27 -61 -36 -75 -14 -20 -14 -28 -5 -37 17 -16 64 39 80 95 11 36 14 39 28 26 8 -9 16 -33 19 -54 5 -60 -34 -131 -117 -209 l-71 -67 -22 20 c-43 38 -156 122 -165 122 -5 0 -12 4 -15 8 -6 9 189 215 219 231 26 13 61 14 85 1z m-1052 -51 c414 -45 740 -181 952 -398 172 -177 280 -427 337 -781 15 -98 18 -172 17 -495 0 -213 -6 -440 -12 -515 -7 -74 -17 -358 -22 -630 -13 -706 -24 -869 -76 -1127 -65 -319 -150 -501 -313 -664 -185 -184 -413 -282 -771 -330 -148 -20 -521 -18 -660 4 -194 30 -310 56 -431 97 -502 167 -747 503 -810 1109 -16 154 -6 501 22 811 30 330 32 700 4 1000 -27 293 -28 800 -2 937 78 409 249 644 592 813 175 86 404 148 635 173 80 9 448 6 538 -4z m-1942 -2167 c17 -5 49 -21 70 -34 21 -13 48 -28 59 -34 17 -10 20 -23 23 -106 l3 -94 -43 1 c-132 5 -268 88 -268 163 0 26 25 29 58 6 20 -14 23 -14 29 2 4 12 -2 25 -20 40 -31 27 -33 37 -12 58 16 16 45 15 101 -2z m3492 -14 c19 -19 14 -37 -15 -62 -17 -15 -24 -29 -20 -39 6 -15 10 -15 41 4 l35 21 7 -26 c14 -58 -84 -137 -206 -165 -73 -17 -72 -18 -64 52 4 34 8 82 8 106 1 38 5 47 31 63 91 56 157 72 183 46z m-3306 -1965 l26 -78 -37 -32 c-52 -44 -67 -83 -53 -131 24 -81 107 -121 184 -89 35 15 37 15 51 -7 8 -12 39 -48 68 -80 59 -65 59 -66 -30 -92 -159 -48 -333 31 -408 184 -24 48 -28 70 -28 137 0 88 19 137 72 187 25 24 110 78 123 78 3 0 17 -35 32 -77z m3028 -16 c259 -154 117 -572 -195 -570 -64 0 -185 33 -185 50 0 3 23 32 51 64 48 56 53 59 87 53 52 -7 101 22 130 77 25 48 23 77 -8 120 -18 25 -18 27 18 132 20 59 39 107 42 107 3 0 30 -15 60 -33z"/>
 <path d="M3289 2533 c-19 -8 -46 -25 -60 -39 l-25 -24 -24 25 c-30 32 -80 48 -112 36 -33 -12 -73 -61 -89 -108 -7 -21 -13 -68 -13 -105 -1 -42 -5 -68 -12 -68 -6 0 -25 -7 -43 -16 -28 -14 -50 -48 -75 -118 -8 -24 12 -92 41 -134 21 -32 84 -82 103 -82 5 0 17 -17 25 -37 37 -89 117 -136 231 -136 113 0 190 47 210 129 7 31 31 64 46 64 18 0 91 66 120 109 25 36 30 50 26 86 -9 78 -82 145 -160 145 l-33 0 0 104 c0 95 -2 106 -23 129 -13 13 -40 31 -61 39 -33 13 -43 13 -72 1z m89 -59 c20 -13 22 -22 22 -107 0 -50 -3 -102 -6 -114 -6 -23 -53 -46 -117 -58 l-37 -7 0 122 c0 131 6 152 48 174 29 16 53 13 90 -10z m-238 -1 c42 -29 46 -41 48 -159 2 -126 1 -128 -61 -100 -18 7 -51 19 -74 25 l-43 12 0 58 c0 63 20 134 47 163 20 23 51 23 83 1z m393 -266 c44 -19 72 -72 63 -121 -9 -45 -61 -100 -128 -136 l-47 -25 -28 26 c-75 70 -317 68 -367 -2 -12 -18 -14 -18 -57 4 -127 64 -115 257 17 257 13 0 68 -14 121 -31 117 -38 169 -36 283 10 86 35 98 36 143 18z"/>
 <path d="M2433 1925 c-120 -33 -202 -86 -269 -177 -111 -151 -117 -373 -15 -522 73 -106 192 -181 333 -210 162 -33 295 -6 426 87 175 125 228 414 110 599 -38 60 -119 135 -185 171 -112 60 -285 83 -400 52z m262 -47 c110 -28 218 -96 270 -172 54 -80 78 -165 71 -261 -11 -180 -99 -305 -256 -366 -68 -26 -222 -37 -301 -20 -74 16 -190 74 -237 121 -194 187 -149 534 85 658 51 26 107 43 193 56 33 5 125 -3 175 -16z"/>
 <path d="M2300 1649 c-41 -17 -90 -71 -101 -111 -14 -55 -1 -105 38 -149 59 -66 132 -74 194 -22 42 35 59 74 59 131 0 103 -105 187 -190 151z m135 -119 c0 -18 -6 -26 -23 -28 -13 -2 -25 3 -28 12 -10 26 4 48 28 44 17 -2 23 -10 23 -28z"/>
 <path d="M3638 1875 c-169 -43 -294 -156 -347 -313 -52 -154 -7 -317 123 -448 205 -206 537 -219 729 -29 67 65 112 152 133 259 46 226 -82 432 -320 513 -90 31 -235 39 -318 18z m277 -50 c189 -50 313 -189 323 -366 11 -188 -71 -339 -226 -416 -72 -35 -84 -38 -183 -41 -121 -5 -186 9 -283 61 -166 88 -264 291 -222 457 39 153 133 253 284 301 73 23 225 25 307 4z"/>
 <path d="M3495 1613 c-48 -12 -104 -96 -105 -157 0 -41 36 -111 67 -131 68 -45 128 -37 187 24 36 37 39 45 40 99 2 115 -85 190 -189 165z m135 -108 c0 -26 -12 -45 -30 -45 -23 0 -32 36 -14 55 16 16 44 10 44 -10z"/>
 </g>
<g id="layer107" fill="#74cedd" stroke="none">
 <path d="M2960 5713 c-293 -31 -576 -122 -766 -245 -271 -175 -412 -399 -481 -761 -26 -137 -25 -644 2 -937 28 -300 26 -670 -4 -1000 -28 -310 -38 -657 -22 -811 40 -384 150 -648 353 -850 202 -200 457 -305 908 -376 139 -22 512 -24 660 -4 372 50 612 158 803 360 156 166 238 345 301 654 52 258 63 421 76 1127 5 272 15 556 22 630 6 75 12 302 12 515 1 417 -6 494 -64 720 -63 245 -155 418 -300 566 -224 228 -540 363 -962 408 -90 10 -458 13 -538 4z m458 -3244 c9 -16 12 -57 10 -128 l-3 -105 58 3 c57 2 60 1 99 -40 39 -41 40 -43 36 -102 -4 -58 -7 -62 -57 -109 -29 -27 -71 -58 -92 -69 -26 -13 -39 -26 -39 -40 0 -80 -78 -133 -194 -132 -116 1 -198 49 -213 126 -4 22 -15 33 -42 44 -78 32 -124 98 -124 178 0 76 39 134 90 135 30 0 34 9 37 94 3 89 36 164 79 184 35 17 79 4 120 -35 l28 -27 22 27 c12 14 37 33 56 41 31 12 39 12 75 -4 23 -9 47 -28 54 -41z m-714 -569 c175 -45 297 -152 340 -299 9 -32 16 -91 16 -140 -1 -221 -131 -381 -349 -427 -86 -18 -135 -18 -229 2 -245 50 -384 209 -384 439 0 315 277 509 606 425z m1252 -63 c176 -60 278 -174 305 -343 22 -134 -34 -305 -128 -398 -179 -176 -518 -163 -709 28 -154 155 -177 373 -57 553 56 85 152 148 271 178 83 21 228 13 318 -18z"/>
 <path d="M1660 1614 c-59 -33 -116 -89 -143 -139 -34 -63 -31 -182 6 -258 37 -74 110 -147 184 -184 51 -24 69 -28 148 -28 78 0 98 4 149 28 l60 28 -46 47 c-24 26 -61 68 -82 94 l-37 46 -37 -15 c-142 -59 -239 121 -106 199 19 11 34 22 34 24 0 22 -62 180 -72 182 -7 1 -33 -10 -58 -24z"/>
 <path d="M4683 1559 c-4 -12 -21 -65 -39 -118 -28 -82 -31 -98 -19 -111 43 -47 38 -115 -11 -161 -20 -19 -37 -24 -75 -24 -48 0 -51 -2 -113 -67 l-64 -68 24 -19 c40 -32 123 -55 195 -54 83 0 158 33 229 99 170 159 149 404 -44 515 -61 35 -76 36 -83 8z"/>
 </g>

</svg>